<?xml version="1.0" encoding="UTF-8" standalone="no"?>
<!-- Created with Inkscape (http://www.inkscape.org/) -->

<svg
   version="1.1"
   id="svg2"
   width="2666.6667"
   height="2666.6667"
   viewBox="0 0 2666.6667 2666.6667"
   sodipodi:docname="logo NEv.ai"
   xmlns:inkscape="http://www.inkscape.org/namespaces/inkscape"
   xmlns:sodipodi="http://sodipodi.sourceforge.net/DTD/sodipodi-0.dtd"
   xmlns="http://www.w3.org/2000/svg"
   xmlns:svg="http://www.w3.org/2000/svg">
  <defs
     id="defs6">
    <clipPath
       clipPathUnits="userSpaceOnUse"
       id="clipPath16">
      <path
         d="M 0,2000 H 2000 V 0 H 0 Z"
         id="path14" />
    </clipPath>
  </defs>
  <sodipodi:namedview
     id="namedview4"
     pagecolor="#ffffff"
     bordercolor="#000000"
     borderopacity="0.25"
     inkscape:showpageshadow="2"
     inkscape:pageopacity="0.0"
     inkscape:pagecheckerboard="0"
     inkscape:deskcolor="#d1d1d1" />
  <g
     id="g8"
     inkscape:groupmode="layer"
     inkscape:label="logo NEv"
     transform="matrix(1.3333333,0,0,-1.3333333,0,2666.6667)">
    <g
       id="g10">
      <g
         id="g12"
         clip-path="url(#clipPath16)">
        <g
           id="g18"
           transform="translate(1611.6865,1552.8696)">
          <path
             d="m 0,0 c -54.43,9.929 -106.623,26.609 -156.329,51.064 -21.654,10.661 -43.288,21.363 -65.341,31.145 -15.823,7.023 -30.83,10.89 -44.25,-7.378 -5.33,-7.233 -17.913,-12.166 -27.508,-12.688 -3.26,-0.188 -6.479,-0.481 -9.635,-0.899 2.09,-6.375 1.797,-13.336 -1.066,-19.732 -3.574,-7.985 -10.64,-13.9 -19.147,-16.492 h 24.373 l -46.153,-389.787 -1.923,-17.077 h 17.747 v -88.501 h -381.845 v 88.501 h 16.764 l -1.756,18.248 -0.042,0.334 -45.985,388.282 h 24.915 c -8.611,2.634 -15.718,8.654 -19.23,16.764 -4.452,10.284 -2.382,21.843 5.414,30.204 l 148.866,159.255 c -9.949,7.776 -19.898,15.53 -29.931,23.368 -4.453,-5.371 -7.651,-8.987 -10.598,-12.792 -19.063,-24.623 -37.018,-36.621 -59.551,2.049 -24.163,41.491 -66.678,57.837 -112.685,73.262 -4.765,-21.926 -11.308,-41.491 -12.98,-61.432 -9.281,-110.573 -57.272,-208.333 -104.093,-305.488 -29.912,-62.1 -71.863,-118.286 -106.101,-178.442 -41.094,-72.218 -99.077,-125.686 -171.378,-165.004 -17.244,-9.364 -33.653,-20.233 -52.382,-31.583 5.79,-3.784 8.947,-7.128 12.73,-8.131 20.84,-5.435 41.721,-10.869 62.811,-15.259 56.938,-11.873 96.486,-43.582 106.77,-102.045 14.255,-81.08 18.895,-163.101 -10.242,-242.071 -13.671,-37.08 -8.006,-68.705 11.684,-99.787 13.21,-20.86 27.382,-41.24 42.683,-60.617 25.229,-31.918 51.691,-38.544 90.465,-24.79 25.605,9.071 54.994,-10.158 54.054,-37.248 -0.753,-22.094 -5.833,-43.999 -7.797,-66.093 -1.212,-13.524 -6.145,-18.959 -20.547,-19.732 -29.744,-1.588 -41.825,-14.339 -47.887,-44.501 -3.826,-19 -8.591,-37.813 -12.939,-56.771 6.104,-12.751 13.294,-25.396 18.353,-38.837 7.524,-19.982 18.895,-37.185 38.209,-45.839 22.031,-9.865 25.125,-24.81 21.78,-46.506 -7.358,-48.097 29.87,-90.362 78.07,-89.819 5.038,0.064 13.294,5.163 14.465,9.448 13.816,50.041 21.675,99.934 1.86,150.999 -18.875,48.619 -18.332,95.816 19.878,136.869 3.345,3.574 5.623,8.131 8.34,12.269 23.704,36.015 34.447,77.046 40.53,118.558 8.152,55.831 39.986,85.156 92.075,101.021 72.74,22.136 137.245,59.029 186.971,118.537 33.59,40.216 76.231,51.023 126.815,40.238 24.581,-5.247 50.166,-7.671 75.332,-7.902 31.144,-0.271 50.667,21.029 46.968,51.4 -1.778,14.548 -8.8,29.597 -17.078,41.971 -36.747,54.869 -36.809,102.213 2.822,153.8 21.216,27.612 25.522,56.896 18.018,90.821 -9.992,45.128 -16.325,91.092 -23.808,136.784 -0.836,5.184 -0.565,11.747 1.902,16.137 21.278,37.645 41.304,76.231 65.654,111.828 12.751,18.624 30.998,39.526 51.043,45.901 49.31,15.656 76.776,53.447 110.302,89.337 C 10.556,-2.759 5.351,-0.961 0,0"
             style="fill:#3a6d9b;fill-opacity:1;fill-rule:nonzero;stroke:none"
             id="path20" />
        </g>
        <g
           id="g22"
           transform="translate(1002.7275,1196.5337)">
          <path
             d="m 0,0 -11.78,104.447 c 15.469,-1.23 30.134,3.188 44.761,7.553 0.936,0.279 2.034,2.83 1.729,3.969 -1.448,5.413 -3.418,10.683 -5.073,16.044 -0.825,2.666 -2.21,3.254 -4.888,2.422 -5.357,-1.666 -10.758,-3.307 -16.253,-4.391 -6.963,-1.373 -14.006,-3.243 -22.432,-0.918 13.515,24.136 34.647,38.981 56.072,55.179 0.153,-3.376 0.282,-5.331 0.325,-7.288 0.633,-29.417 3.221,-58.607 10.931,-87.118 3.508,-12.975 7.729,-25.752 17.156,-35.92 10.833,-11.686 25.548,-11.373 35.857,0.696 9.202,10.772 13.521,23.812 16.969,37.213 1.091,4.239 1.877,8.556 2.827,12.956 -8.01,1.69 -14.913,3.145 -22.78,4.804 C 99.567,95.86 97.294,81.815 87.945,69.284 c -2.298,4.057 -4.707,6.938 -5.665,10.24 -3.974,13.7 -8.429,27.357 -11.012,41.343 -5.019,27.173 -5.599,54.739 -4.711,82.32 0.181,5.651 -1.286,10.375 -6.438,13.408 -5.283,3.109 -10.237,1.835 -14.705,-1.533 -17.622,-13.289 -35.572,-26.193 -52.555,-40.26 -4.004,-3.317 -7.821,-6.858 -11.374,-10.635 l -6.094,54.033 c 5.731,-7.37 12.636,-13.826 19.56,-20.187 0.848,-0.779 3.62,-0.892 4.325,-0.17 4.774,4.886 9.231,10.082 13.877,15.274 -10.115,10.306 -20.923,19.261 -27.073,33.624 3.777,0 6.518,0.458 9.047,-0.079 11.663,-2.475 23.55,-4.363 34.838,-8.047 29.439,-9.606 56.633,-24.087 82.883,-40.364 4.666,-2.893 9.414,-4.057 14.327,-1.134 5.027,2.991 6.651,7.717 6.314,13.472 -1.43,24.466 -3.798,48.799 -10.094,72.575 -3.542,13.372 -7.875,26.438 -17.083,37.226 -9.922,11.625 -25.054,12.409 -35.19,1.26 -13.083,-14.391 -17.079,-32.652 -21.297,-51.558 8.042,-1.627 15.38,-3.111 22.966,-4.645 4,13.893 6.182,27.651 15.731,40.407 14.078,-24.513 16.712,-50.148 19.749,-76.897 -3.375,1.801 -5.377,3.015 -7.494,3.975 -20.768,9.425 -41.289,19.47 -62.424,27.989 -16.147,6.509 -33.143,10.797 -50.928,9.63 -6.97,-0.458 -12.926,-2.615 -17.244,-6.152 l -10.97,97.26 h -70.19 L -68.151,0 Z"
             style="fill:#c6984f;fill-opacity:1;fill-rule:nonzero;stroke:none"
             id="path24" />
        </g>
        <g
           id="g26"
           transform="translate(1198.0703,1359.7739)">
          <path
             d="M 0,0 C -5.184,5.602 -10.952,10.806 -16.68,16.116 -22.156,9.887 -27.11,4.243 -32.168,-1.526 c 10.221,-10.284 20.902,-19.293 27.193,-33.841 -28.238,0.063 -51.774,10.786 -76.711,21.258 2.906,1.797 4.724,2.926 6.563,4.055 22.763,13.942 44.647,29.137 64.107,47.511 C -4.808,43.31 1.213,49.35 6.312,56.081 Z M 22.366,198.426 11.329,100.457 c -1.985,1.755 -4.348,3.239 -7.086,4.305 -3.657,1.443 -7.671,2.3 -11.6,2.551 -13.942,0.94 -27.236,-2.342 -40.383,-6.313 -1.631,-0.501 -3.261,-1.003 -4.892,-1.505 -0.753,-0.251 -1.338,-1.066 -1.985,-1.63 1.923,-5.916 3.971,-11.559 5.559,-17.286 0.858,-3.178 2.216,-3.889 4.579,-3.47 0.542,0.083 1.127,0.25 1.797,0.438 6.563,2.007 13.252,3.847 20.003,5.017 5.351,0.941 10.891,0.752 17.788,1.129 -2.173,-4.097 -3.156,-6.856 -4.891,-9.03 -4.912,-6.04 -9.72,-12.249 -15.28,-17.621 C -30.621,51.67 -36.391,46.57 -42.327,41.742 -54.931,31.395 -68.309,22.135 -82.167,13.565 -90.904,8.173 -99.829,3.031 -108.9,-1.881 c -0.315,-0.188 -0.627,-0.356 -0.942,-0.523 -4.953,-2.676 -8.507,-6.124 -8.507,-12.144 0.021,-6.02 3.344,-9.866 8.591,-12.061 1.108,-0.46 2.216,-0.94 3.303,-1.4 3.658,-1.568 7.295,-3.136 10.932,-4.703 15.843,-6.835 31.667,-13.691 47.825,-19.69 0.041,-0.021 0.062,-0.021 0.103,-0.042 13.065,-4.828 26.839,-7.671 40.949,-6.271 l -11.769,-104.533 h 68.143 l 42.828,361.674 z"
             style="fill:#c6984f;fill-opacity:1;fill-rule:nonzero;stroke:none"
             id="path28" />
        </g>
        <path
           d="m 920.3,1102.21 h 342.456 v 49.116 H 920.3 Z"
           style="fill:#c6984f;fill-opacity:1;fill-rule:nonzero;stroke:none"
           id="path30" />
        <g
           id="g32"
           transform="translate(904.4609,1596.0928)">
          <path
             d="m 0,0 h 374.031 c 9.617,0 15.178,8.842 9.531,15.154 l -154.62,172.817 c -12.664,14.154 -15.121,32.693 -6.457,48.706 l 1.899,3.509 c 3.414,6.309 -2.285,13.383 -10.782,13.383 h -44.985 c -8.453,0 -14.151,-7.008 -10.822,-13.308 l 1.646,-3.115 c 8.601,-16.273 5.768,-35.037 -7.42,-49.146 L -9.384,15.315 C -15.261,9.027 -9.73,0 0,0"
             style="fill:#c6984f;fill-opacity:1;fill-rule:nonzero;stroke:none"
             id="path34" />
        </g>
      </g>
    </g>
  </g>
</svg>
